<svg xmlns="http://www.w3.org/2000/svg" viewBox="0 0 680 640" width="680" height="640">
  <path fill="#5eff3f" d="
    M 185 523
    A 340 60 0 1 0 495 523
    C 550 330, 400 140, 470 80
    C 490 20, 440 -50, 407 56
    Q 340 20, 273 56
    C 240 -50, 189 20, 210 80
    C 280 140, 130 330, 185 523
  "/>
  <path fill="#fff" d="
    M 410 612
    C 520 490, 370 270, 431 235
    C 440 180, 405 160, 388 221
    Q 340 180, 292 221
    C 275 160, 240 180, 249 235
    C 310 270, 160 490, 270 612
  "/>
</svg>
